<svg width="428" height="170" viewBox="0 0 428 170" fill="none" xmlns="http://www.w3.org/2000/svg">
<path fill-rule="evenodd" clip-rule="evenodd" d="M205.421 52.5096C205.421 52.0429 204.83 50.7593 204.108 49.657C203.075 48.08 202.819 45.6229 202.906 38.129C203.015 28.7727 203.066 28.528 205.816 24.2292C207.356 21.8225 209.398 18.3188 210.355 16.4433C211.312 14.5678 213.539 11.4667 215.304 9.55187C217.069 7.63708 218.272 5.82958 217.978 5.53522C217.683 5.24084 214.575 5 211.07 5C204.753 5 202.67 5.85532 204.509 7.69423C205.011 8.19589 205.421 9.31084 205.421 10.1719C205.421 11.8454 200.613 21.3963 199.775 21.3871C198.993 21.3785 193.127 10.2511 193.127 8.77618C193.127 8.05165 193.496 7.45887 193.946 7.45887C194.397 7.45887 194.766 6.90562 194.766 6.22945C194.766 5.21904 193.314 5 186.618 5C178.477 5 176.064 5.78417 179.139 7.43004C181.192 8.5287 184.371 13.1459 189.741 22.8289L193.946 30.4124L193.928 37.992C193.915 43.6489 193.517 46.4383 192.359 48.9883C191.506 50.8675 191.022 52.6195 191.284 52.8816C192.153 53.7506 205.421 53.4015 205.421 52.5096Z" fill="black"/>
<path fill-rule="evenodd" clip-rule="evenodd" d="M259.929 52.3834C260.148 51.7925 262.737 41.9037 265.681 30.4085C270.199 12.7683 271.35 9.24744 273.062 7.8379C274.177 6.91937 275.09 5.9051 275.09 5.58391C275.09 5.26278 272.139 5 268.533 5C262.588 5 261.976 5.1487 261.976 6.59086C261.976 7.46587 262.344 8.40971 262.795 8.68832C263.246 8.96694 263.615 10.0569 263.615 11.1104C263.615 13.1593 259.085 32.7525 258.469 33.3686C258.083 33.7542 253.509 17.0479 251.901 9.37896C250.969 4.9362 250.957 4.92297 248.095 5.16601L245.225 5.4098L241.859 19.1316C240.008 26.6786 238.314 33.0327 238.095 33.2518C237.876 33.4708 236.461 28.3101 234.952 21.7835C232.679 11.9626 232.37 9.55716 233.157 7.82974C233.68 6.68175 234.108 5.57545 234.108 5.37122C234.108 4.79672 221.334 4.93299 220.754 5.51371C220.471 5.79627 220.821 7.1514 221.532 8.52511C222.943 11.255 224.706 18.2058 228.398 35.6033C232.313 54.0505 232.019 53.32 235.414 53.0154C237.011 52.8721 238.605 52.4295 238.955 52.0319C239.306 51.6343 241.019 45.6843 242.762 38.8097C244.505 31.935 246.154 26.3103 246.426 26.3103C246.699 26.3103 247.384 28.6155 247.95 31.433C248.516 34.2505 249.972 40.244 251.185 44.752L253.391 52.9482L256.461 53.203C258.437 53.3671 259.672 53.0754 259.929 52.3834Z" fill="black"/>
<path fill-rule="evenodd" clip-rule="evenodd" d="M307.382 51.5138C309.58 48.0925 311.451 43.5468 310.892 42.988C310.587 42.6828 308.395 43.4158 306.021 44.617C302.617 46.3391 300.537 46.8009 296.183 46.8009H290.663V39.4243V32.0477H294.815C297.098 32.0477 299.727 32.4546 300.656 32.9519C302.949 34.1787 303.748 32.7689 303.764 27.4714C303.779 22.4476 303.208 21.6938 300.969 23.7855C299.268 25.3746 297.147 25.8573 292.917 25.6181L290.663 25.4906V18.5797V11.6688L292.917 11.9662C294.156 12.1298 296.318 12.2891 297.72 12.3201C299.122 12.3512 301.662 13.3219 303.365 14.4772C305.067 15.6326 306.746 16.278 307.096 15.9116C307.446 15.5451 307.488 13.0323 307.189 10.3275L306.645 5.40973L292.097 5.18594C281.808 5.02764 277.549 5.22971 277.549 5.87629C277.549 6.37905 278.286 7.72823 279.188 8.8744C280.712 10.8127 280.827 12.1969 280.824 28.6748C280.821 44.9344 280.686 46.6118 279.185 49.0748C278.285 50.5507 277.549 52.1183 277.549 52.5582C277.549 53.0477 283.106 53.358 291.873 53.358C305.831 53.358 306.228 53.3108 307.382 51.5138Z" fill="black"/>
<path fill-rule="evenodd" clip-rule="evenodd" d="M369.342 52.7434C369.339 52.4053 368.603 51.0221 367.708 49.6698C366.342 47.6079 366.078 45.8144 366.074 38.5628L366.068 29.9148L371.449 20.531C374.408 15.3699 377.728 10.205 378.826 9.0533C379.923 7.90167 380.822 6.56871 380.822 6.09124C380.822 5.56975 378.361 5.16603 374.661 5.08022C369.825 4.96809 368.398 5.20399 368.024 6.17707C367.762 6.85891 368.133 8.00111 368.847 8.71529C370.032 9.90025 369.965 10.3696 368.084 14.0813C366.951 16.3184 365.328 19.2925 364.478 20.6903L362.932 23.2319L359.981 16.8454C357.719 11.9483 357.148 9.8348 357.532 7.78292L358.034 5.10698L350.581 5.2584C346.482 5.3417 343.126 5.75847 343.123 6.18461C343.121 6.61074 343.99 7.90167 345.055 9.0533C346.12 10.205 349.293 15.5392 352.106 20.9072L357.221 30.6672L356.927 39.9318C356.675 47.8769 356.412 49.3584 355.078 50.3333C352.214 52.4278 354.348 53.3581 362.019 53.3581C366.049 53.3581 369.344 53.0814 369.342 52.7434Z" fill="black"/>
<path fill-rule="evenodd" clip-rule="evenodd" d="M145.43 53.1389C146.596 51.7345 148.501 42.8831 147.79 42.1726C147.52 41.9025 145.56 42.8334 143.435 44.2413C140.32 46.3041 138.722 46.801 135.203 46.801H130.835V28.4699C130.835 11.3799 130.946 9.99776 132.474 8.05487C133.376 6.90867 134.114 5.75242 134.114 5.48544C134.114 5.21843 130.61 5 126.327 5C122.045 5 118.541 5.32381 118.541 5.71952C118.541 6.11528 119.114 7.81032 119.814 9.48625C120.862 11.9954 121.043 15.6919 120.838 30.4226C120.593 48.0601 120.562 48.3416 118.606 50.4219C117.515 51.5824 116.9 52.81 117.239 53.1499C117.579 53.4898 123.839 53.8937 131.15 54.0475C142.011 54.276 144.625 54.1097 145.43 53.1389Z" fill="black"/>
<path fill-rule="evenodd" clip-rule="evenodd" d="M179.729 53.5503C180.674 52.9485 183.502 43.4603 182.913 42.8704C182.741 42.6987 180.939 43.5321 178.908 44.7223C175.847 46.5158 174.398 46.8439 170.442 46.6387L165.669 46.3911L165.449 28.6459L165.228 10.9005L167.27 8.47379C168.393 7.13908 169.076 5.81144 168.788 5.52347C168.047 4.7823 152.96 4.86938 152.991 5.61464C153.005 5.95275 153.559 6.9453 154.221 7.82036C155.198 9.11275 155.423 12.9586 155.421 28.3111C155.418 45.9781 155.307 47.3923 153.721 49.9937C152.363 52.2215 152.241 52.914 153.11 53.4646C154.443 54.3098 178.415 54.387 179.729 53.5503Z" fill="black"/>
<path fill-rule="evenodd" clip-rule="evenodd" d="M343.512 52.8477C344.86 51.4994 346.908 42.94 346.08 42.1122C345.76 41.7928 345.015 41.8872 344.424 42.3221C339.554 45.9033 338.434 46.3509 333.572 46.6605L328.365 46.992V28.9276C328.365 10.909 328.371 10.8571 330.392 8.45517C331.506 7.13077 332.182 5.81155 331.894 5.52358C331.224 4.85346 316.51 4.83412 315.842 5.50249C315.565 5.77886 316.077 7.00219 316.978 8.22105C318.525 10.3138 318.602 11.5127 318.368 29.7642C318.144 47.2043 317.972 49.2546 316.605 50.7633C313.826 53.8315 315.436 54.2563 329.298 54.1121C339.171 54.0094 342.661 53.699 343.512 52.8477Z" fill="black"/>
<path fill-rule="evenodd" clip-rule="evenodd" d="M396.868 53.5727C398.225 53.4238 399.336 53.2171 399.336 53.1135C399.336 53.0098 398.514 51.412 397.509 49.563C395.897 46.5958 395.701 44.7808 395.837 34.1074C395.922 27.456 396.239 22.0189 396.542 22.0249C396.845 22.031 399.887 26.3274 403.303 31.5725C418.857 55.4567 417.201 53.4147 421.023 53.4147H424.455V31.4532C424.455 12.9671 424.668 9.3244 425.8 8.4351C426.54 7.85404 427.146 6.85251 427.146 6.20952C427.146 5.32042 425.534 5.04041 420.418 5.04041C416.717 5.04041 413.689 5.25035 413.689 5.5069C413.689 5.76347 414.308 7.10511 415.064 8.48829C416.59 11.2805 417.647 32.1979 416.262 32.1979C415.834 32.1979 415.483 31.8726 415.483 31.4751C415.483 31.0775 411.46 24.967 406.542 17.8963L397.6 5.04041H391.216C387.705 5.04041 384.988 5.32686 385.179 5.67693C388.59 11.9466 388.673 12.5897 388.396 30.5192C388.127 47.8778 388.083 48.2285 385.95 50.3746C384.756 51.5762 383.974 52.7439 384.212 52.9695C384.773 53.4997 393.669 53.9237 396.868 53.5727Z" fill="black"/>
<path fill-rule="evenodd" clip-rule="evenodd" d="M102.379 167.813C104.463 166.408 105.984 164.266 106.735 161.678C108.483 155.657 107.461 8.65345 105.639 4.04703C105.276 3.12718 104.297 2.11315 103.464 1.79353C101.842 1.17115 31.2947 -0.294765 19.675 0.0525024C10.1652 0.336704 5.75619 1.70513 2.71854 5.31516L0.145828 8.37265V83.0748V157.777L2.39558 162.238C3.63291 164.692 5.77014 167.225 7.14497 167.867C8.88358 168.68 23.2741 169.178 54.4104 169.503C98.995 169.969 99.189 169.962 102.379 167.813ZM97.2022 147.117C98.4384 141.664 99.7392 137.203 100.093 137.203C101.244 137.203 98.3783 157.201 96.9865 158.88C95.7415 160.382 95.607 160.373 95.2943 158.771C95.1074 157.813 95.966 152.569 97.2022 147.117ZM7.14497 30.2165C7.14497 19.7678 7.529 11.2188 7.99832 11.2188C9.2206 11.2188 11.1454 23.8999 11.1389 31.9089C11.1341 37.7458 10.35 42.7471 8.62164 47.9643C7.46729 51.4488 7.14497 47.5745 7.14497 30.2165ZM88.4998 153.196C90.2565 145.417 99.6815 120.603 101.247 119.635C102.559 118.824 101.663 122.235 96.5824 137.397C94.2431 144.378 92.0081 152.027 91.6157 154.395C90.6755 160.07 89.2664 162.732 87.9169 161.382C87.2068 160.672 87.3887 158.116 88.4998 153.196ZM13.3456 152.951C12.7293 148.414 11.8922 142.003 11.4853 138.703L10.7454 132.704L10.1233 138.703C9.78117 142.003 9.7961 147.355 10.1565 150.597C10.847 156.809 10.428 161.2 9.14477 161.2C7.52554 161.2 7.1738 155.904 7.21878 132.204L7.26527 107.707L9.16109 114.706C11.7912 124.416 14.7486 139.106 16.1058 149.202C16.7343 153.876 17.4801 158.488 17.7634 159.45C18.1267 160.685 17.7172 161.2 16.3722 161.2C14.7419 161.2 14.304 160.007 13.3456 152.951ZM95.8126 54.8938C91.7542 46.1097 90.1347 36.3897 90.1347 20.8155C90.1347 9.5297 90.1415 9.4977 92.4441 9.93784C94.7037 10.3698 94.7342 10.5336 93.8577 17.5482C92.7754 26.2102 93.4764 37.2714 95.4527 42.715C96.8857 46.6621 96.9019 46.591 96.6879 37.2859C96.4173 25.5143 97.3187 15.6391 98.6336 15.9695C99.4603 16.1772 100.237 62.2101 99.4138 62.212C99.293 62.2123 97.6725 58.919 95.8126 54.8938ZM7.61493 72.5772C7.92203 68.3789 9.35693 59.9425 10.8036 53.8295C13.6274 41.8971 14.4902 24.7512 12.7793 14.5723C11.9694 9.75491 12.057 9.38155 14.1539 8.71602C17.017 7.80736 17.8711 9.18939 18.739 16.1358C19.7137 23.9377 18.5055 37.1627 15.7627 48.7142C12.6184 61.956 7.75114 80.2103 7.36463 80.2103C7.1952 80.2103 7.30783 76.7754 7.61493 72.5772ZM31.5101 158.3C31.853 156.155 31.4559 147.641 30.6275 139.381C29.4306 127.445 28.3538 122.037 25.3823 113.035C21.8647 102.379 21.6435 100.967 21.6486 89.2091C21.6544 76.0069 22.0945 73.9466 30.8327 46.2145C33.2118 38.664 33.518 36.0698 33.5762 22.9674L33.6417 8.21924H36.2213C38.6711 8.21924 38.8865 8.66337 40.4983 17.0407C42.611 28.0212 42.3343 29.5339 33.0018 58.0234C28.3679 72.1698 25.662 82.2548 24.9509 88.0301C23.7737 97.5913 23.2059 95.1358 32.5304 120.812C34.521 126.293 35.3613 131.291 36.2062 142.672C37.4882 159.941 37.1745 162.2 33.4948 162.2C31.0227 162.2 30.919 161.996 31.5101 158.3ZM76.5163 160.45C76.7993 159.488 77.7346 155.917 78.5946 152.514C79.4546 149.111 82.4651 140.112 85.2846 132.516C92.8897 112.028 94.2825 106.217 94.2796 94.9862C94.2764 82.5575 92.0616 71.3104 87.1265 58.6623C81.4334 44.0716 80.1677 37.6073 80.1507 23.0348C80.137 11.244 80.2757 10.3094 82.1268 9.72186C83.2217 9.37434 84.5034 9.32849 84.975 9.61996C85.4466 9.91143 86.1456 16.1272 86.5283 23.4328C87.5395 42.7364 88.6672 49.0537 92.7659 58.3757C97.2872 68.659 100.522 85.8181 99.6156 94.7085C98.4049 106.581 96.8856 112.871 92.1168 125.752C89.4512 132.952 86.0174 144.099 84.4861 150.522C81.7391 162.044 81.6638 162.2 78.8518 162.2C76.6079 162.2 76.1111 161.828 76.5163 160.45ZM21.7909 160.45C21.5231 159.488 21.0145 155.551 20.6606 151.701C19.7228 141.499 16.5085 123.184 13.6418 111.709C9.49062 95.0922 10.2857 83.104 17.1234 59.2129C24.2373 34.3567 24.3894 33.5344 23.8576 22.8101C23.5824 17.2598 23.0316 11.7063 22.6335 10.4689C21.9918 8.47392 22.2506 8.21924 24.9191 8.21924C28.6776 8.21924 29.1322 9.3327 29.8528 20.3019C30.506 30.2457 29.0582 38.0362 23.0859 56.7132C16.8411 76.242 14.9515 89.8117 17.0987 99.7079C17.576 101.908 19.3729 109.107 21.0918 115.706C24.7021 129.566 27.8044 152.951 26.7624 158.451C26.24 161.208 25.5527 162.2 24.1649 162.2C23.1271 162.2 22.0588 161.413 21.7909 160.45ZM64.1379 161.174C64.1379 156.273 71.3621 133.062 76.3774 121.849C81.8972 109.507 84.1354 101.012 84.1354 92.4024C84.1354 83.5092 80.5844 67.2646 75.6917 53.7762C72.1011 43.8771 70.9056 36.437 69.768 16.9102L69.3131 9.10323L71.9749 9.41113L74.6366 9.71904L75.3825 24.2172C76.1668 39.4639 78.3021 49.2356 84.9963 68.2118C89.0899 79.8161 90.327 89.7071 89.0747 100.82C87.8764 111.453 87.5932 112.492 81.8845 127.204C79.4306 133.529 75.7705 143.99 73.7508 150.452C70.1448 161.989 70.0256 162.2 67.1084 162.2C65.4746 162.2 64.1379 161.738 64.1379 161.174ZM41.7949 153.951C41.4417 149.414 41.143 142.553 41.1312 138.703C41.1035 129.738 39.4466 123.024 34.3456 111.206C32.0906 105.982 29.9705 99.9072 29.6344 97.7077C28.4135 89.7191 31.4397 77.0006 41.8862 46.2145C46.2038 33.4904 47.051 24.4085 44.7445 15.574C42.7097 7.78031 42.6285 8.21924 46.1049 8.21924C50.7059 8.21924 51.4858 10.8343 51.4724 26.217C51.4619 38.2506 51.1592 40.6375 48.6829 48.2142C47.1551 52.8887 44.546 59.4109 42.8847 62.708C38.0462 72.3111 36.0642 79.1234 35.4651 88.2093C34.9258 96.3891 35.0805 97.2274 39.5852 110.532C45.1878 127.08 46.9555 135.757 47.8 150.856L48.4344 162.2H45.4357H42.437L41.7949 153.951ZM51.8453 148.452C51.2135 134.009 48.617 121.861 42.6022 105.207C40.2438 98.6773 39.9599 96.6743 40.4052 89.7091C40.9753 80.7921 42.5574 75.8155 49.9851 59.5757C52.7863 53.4509 55.5309 46.4767 56.0841 44.0776C56.6373 41.6783 57.1009 32.7412 57.1142 24.2172L57.1386 8.71914L60.3883 8.80876C63.4153 8.89215 63.7208 9.22791 64.8474 13.7092C65.5125 16.3552 66.4729 24.4139 66.9816 31.6174C67.6494 41.0731 68.6104 46.7997 70.4383 52.2137C77.7748 73.9431 79.6127 83.3939 78.8937 95.6914C78.3571 104.867 76.0084 111.369 65.1627 133.704C60.5341 143.235 58.1511 149.432 57.6945 153.124C56.9334 159.279 55.6664 162.2 53.7577 162.2C52.769 162.2 52.2988 158.82 51.8453 148.452ZM58.9782 134.345C59.6139 132.222 62.3696 126.469 65.1018 121.559C71.6442 109.802 73.5202 102.356 72.9053 90.5845C72.4773 82.3912 71.9651 80.4544 67.8806 71.5868C65.3792 66.156 62.7595 59.3728 62.0592 56.5131C61.3588 53.6534 60.4858 51.4991 60.1191 51.7257C59.7524 51.9524 58.4144 55.6419 57.1458 59.9248C55.8772 64.2077 53.1263 71.0864 51.0326 75.2109C48.7215 79.7637 46.816 85.3155 46.1826 89.3418C45.2163 95.4845 45.3874 96.9225 48.5022 108.839C53.4624 127.816 56.5473 138.203 57.2233 138.203C57.5527 138.203 58.3423 136.467 58.9782 134.345ZM53.7609 109.636C50.3837 95.3758 50.4189 91.2357 53.9814 83.7054C55.5435 80.4033 57.3855 75.9931 58.0747 73.9049C58.7639 71.8166 59.8476 70.2613 60.483 70.4486C61.1183 70.6361 62.9624 73.4715 64.5809 76.7497C67.2285 82.1124 67.5285 83.7125 67.5723 92.7087C67.6162 101.71 67.2999 103.505 64.4014 110.706C60.4787 120.452 58.176 124.047 57.1184 122.077C56.7135 121.323 55.2026 115.724 53.7609 109.636ZM60.9339 103.691C64.4935 96.3643 63.6613 82.5414 59.3998 78.2105C58.0933 76.8828 58.0032 76.9743 58.6139 79.0084C58.9933 80.2722 58.8226 81.8858 58.2347 82.5943C57.6467 83.3028 56.4964 85.779 55.6786 88.0969C54.3561 91.8453 54.3626 93.0484 55.7377 98.9775C57.9585 108.553 58.3841 108.939 60.9339 103.691Z" fill="black"/>
<path fill-rule="evenodd" clip-rule="evenodd" d="M198.354 122.076C198.354 121.889 196.885 119.693 195.09 117.196C193.295 114.698 190.6 110.201 189.1 107.201L186.374 101.747L188.55 100.411C194.147 96.9754 197.182 91.4474 196.197 86.4807C195.474 82.834 190.716 77.5233 186.759 75.9455C183.029 74.4583 161.059 73.6157 160.202 74.9269C159.912 75.3712 160.303 76.5841 161.072 77.6223C162.23 79.1864 162.47 82.5746 162.47 97.3882C162.47 113.591 162.302 115.578 160.675 118.596C159.689 120.427 158.881 122.035 158.881 122.17C158.881 122.304 162.725 122.415 167.422 122.415H175.963L174.15 119.054C172.943 116.814 172.342 114.053 172.35 110.779C172.379 99.0115 174.98 98.953 180.398 110.598C186.035 122.715 185.725 122.415 192.574 122.415C195.753 122.415 198.354 122.262 198.354 122.076ZM173.235 88.8921V79.981H176.254C182.06 79.981 186.557 85.631 185.399 91.4712C184.517 95.9181 182.098 97.8031 177.272 97.8031H173.235V88.8921Z" fill="black"/>
<path fill-rule="evenodd" clip-rule="evenodd" d="M233.809 122.407C235.184 121.599 238.376 112.833 237.571 112.071C237.116 111.641 234.586 112.417 231.607 113.899C228.164 115.613 225.138 116.474 222.561 116.474C215.937 116.474 215.85 116.363 215.85 107.896V100.349L219.214 100.352C221.065 100.354 223.9 101.118 225.516 102.05C227.131 102.982 228.847 103.744 229.328 103.744C230.509 103.744 230.452 92.9563 229.267 92.2638C228.752 91.9626 227.353 92.322 226.159 93.0624C224.964 93.8027 222.156 94.4085 219.919 94.4085H215.85V87.5203V80.6321L221.666 80.9824C226.45 81.2706 227.923 81.733 229.973 83.591C233.764 87.0273 235.122 85.672 234.133 79.4385L233.344 74.4647L217.869 74.2325C209.357 74.1048 202.393 74.2355 202.393 74.523C202.393 74.8105 203.201 76.0167 204.188 77.2035C205.86 79.2148 205.982 80.6464 205.982 98.2867C205.982 109.193 205.591 118.184 205.06 119.507C204.552 120.769 204.25 121.905 204.387 122.031C204.868 122.474 233.08 122.834 233.809 122.407Z" fill="black"/>
<path fill-rule="evenodd" clip-rule="evenodd" d="M254.165 122.573C255.522 122.424 256.632 122.217 256.632 122.113C256.632 122.01 255.81 120.412 254.806 118.563C253.194 115.596 252.997 113.781 253.133 103.107C253.218 96.456 253.536 91.0189 253.838 91.0249C254.141 91.031 257.184 95.3274 260.599 100.573C276.154 124.457 274.497 122.415 278.319 122.415H281.751V100.453C281.751 81.9671 281.964 78.3244 283.096 77.4351C283.837 76.854 284.442 75.8525 284.442 75.2095C284.442 74.3204 282.831 74.0404 277.714 74.0404C274.013 74.0404 270.986 74.2504 270.986 74.5069C270.986 74.7635 271.604 76.1051 272.36 77.4883C273.887 80.2805 274.943 101.198 273.558 101.198C273.13 101.198 272.78 100.873 272.78 100.475C272.78 100.077 268.756 93.967 263.838 86.8963L254.896 74.0404H248.512C245.001 74.0404 242.284 74.3269 242.475 74.6769C245.886 80.9466 245.97 81.5897 245.692 99.5192C245.423 116.878 245.38 117.228 243.246 119.375C242.052 120.576 241.27 121.744 241.508 121.969C242.069 122.5 250.965 122.924 254.165 122.573Z" fill="black"/>
<path fill-rule="evenodd" clip-rule="evenodd" d="M142.1 122.356C150.184 120.851 154.828 116.023 154.821 109.132C154.817 104.919 152.379 101.199 148.243 99.0919C146.435 98.1708 144.956 97.1867 144.956 96.9049C144.956 96.6232 145.961 95.8837 147.19 95.2617C148.418 94.6397 150.268 92.4802 151.301 90.4627C152.884 87.3686 153.023 86.3501 152.186 83.9522C151.139 80.9518 147.8 77.5471 144.059 75.6661C141.669 74.4643 117.146 73.3532 117.146 74.4467C117.146 74.7761 117.953 76.0167 118.94 77.2035C120.612 79.2143 120.734 80.6463 120.734 98.2275C120.734 115.809 120.612 117.241 118.94 119.252C117.953 120.438 117.146 121.826 117.146 122.336C117.146 123.447 136.161 123.462 142.1 122.356ZM131.339 89.7408C131.251 86.7068 131.15 83.3808 131.115 82.3497C131.065 80.8793 131.711 80.3473 134.111 79.8829C137.929 79.1443 139.069 79.5501 140.997 82.3343C142.542 84.5655 142.859 87.9055 141.819 91.0053C141.346 92.4159 135.647 94.8928 132.172 95.1981C131.802 95.2306 131.427 92.7748 131.339 89.7408ZM131.172 112.443C130.899 110.226 130.76 106.502 130.863 104.168C131.043 100.11 131.17 99.9138 133.771 99.6727C139.893 99.1052 145.853 106.147 143.851 111.582C142.645 114.855 139.855 116.474 135.421 116.474H131.668L131.172 112.443Z" fill="black"/>
<path fill-rule="evenodd" clip-rule="evenodd" d="M243.732 166.929C250.932 161.266 250.19 148.564 242.427 144.589C240.365 143.533 237.336 143.036 232.958 143.036L226.52 143.034V155.909V168.783H233.948C240.135 168.783 241.769 168.474 243.732 166.929ZM231.848 155.909V148.361H235.44C242.385 148.361 245.867 155.628 241.55 161.116C240.057 163.014 238.968 163.456 235.779 163.456H231.848V155.909Z" fill="black"/>
<path fill-rule="evenodd" clip-rule="evenodd" d="M390.78 168.287C390.78 168.014 388.41 164.677 385.514 160.871L380.247 153.953L385.07 149.19C387.722 146.57 389.893 144.113 389.893 143.73C389.893 143.347 388.406 143.034 386.589 143.034C383.759 143.034 382.549 143.763 378.154 148.112L373.023 153.189V148.112C373.023 143.062 373.008 143.034 370.359 143.034H367.695V155.909V168.783H370.359C372.91 168.783 373.023 168.62 373.023 164.925C373.023 162.28 373.546 160.593 374.688 159.56C376.27 158.128 376.468 158.19 378.65 160.783C379.913 162.284 381.647 164.698 382.503 166.148C383.793 168.331 384.636 168.783 387.42 168.783C389.268 168.783 390.78 168.56 390.78 168.287Z" fill="black"/>
<path fill-rule="evenodd" clip-rule="evenodd" d="M142.682 168.45C143.744 165.593 148.386 146.285 148.386 144.728C148.386 143.279 147.902 142.972 145.969 143.197C143.44 143.491 142.464 145.725 140.802 155.021L140.167 158.572L137.527 150.753C135.22 143.923 134.646 142.969 132.988 143.206C131.481 143.422 130.624 144.888 128.829 150.318C127.585 154.08 126.33 157.395 126.041 157.684C125.751 157.974 125.235 156.694 124.894 154.84C122.796 143.436 122.631 143.034 120.048 143.034C118.704 143.034 117.412 143.228 117.175 143.465C116.938 143.701 118.17 149.595 119.913 156.561L123.081 169.227H125.667C128.137 169.227 128.357 168.89 130.571 161.7L132.89 154.174L135.483 161.811C137.768 168.543 138.327 169.449 140.194 169.449C141.358 169.449 142.478 168.999 142.682 168.45Z" fill="black"/>
<path fill-rule="evenodd" clip-rule="evenodd" d="M172.803 168.275C177.042 166.07 179.411 163.39 180.414 159.666C182.872 150.539 176.954 143.044 167.285 143.037C163.373 143.035 162.169 143.46 159.528 145.779C154.065 150.575 153.372 158.159 157.852 164.123C161.836 169.426 167.542 171.011 172.803 168.275ZM163.412 161.748C158.278 156.615 160.981 148.361 167.795 148.361C174.854 148.361 177.672 156.504 172.427 161.748C171 163.176 168.971 164.344 167.92 164.344C166.868 164.344 164.839 163.176 163.412 161.748Z" fill="black"/>
<path fill-rule="evenodd" clip-rule="evenodd" d="M208.363 168.422C211.931 166.868 215.832 162.142 215.999 159.17C216.594 148.637 212.08 143.041 202.991 143.041C195.014 143.041 190.113 148.161 190.12 156.487C190.124 161.67 192.774 165.8 197.46 167.927C201.856 169.923 204.628 170.049 208.363 168.422ZM199.75 163.384C197.801 162.341 195.444 157.514 195.444 154.565C195.444 149.21 204.258 146.322 208.483 150.292C214.515 155.959 206.981 167.254 199.75 163.384Z" fill="black"/>
<path fill-rule="evenodd" clip-rule="evenodd" d="M284.15 166.341C286.743 156.458 289.561 144.813 289.561 143.983C289.561 143.461 288.382 143.034 286.94 143.034C284.384 143.034 284.283 143.208 282.794 150.137C281.954 154.044 281.032 157.24 280.745 157.24C280.457 157.24 279.227 154.144 278.01 150.359C276.221 144.793 275.427 143.425 273.853 143.201C272.162 142.961 271.67 143.696 270.08 148.844C269.074 152.1 268.251 155.321 268.251 156.002C268.251 159.009 266.778 156.806 265.707 152.197C263.765 143.844 263.285 143.034 260.282 143.034C258.805 143.034 257.597 143.189 257.597 143.378C257.597 144.13 263.877 168.17 264.217 168.721C264.418 169.045 265.695 169.292 267.054 169.269C269.352 169.23 269.654 168.778 271.333 162.862C272.326 159.361 273.351 156.284 273.611 156.024C273.871 155.764 275.213 158.728 276.592 162.611C278.763 168.72 279.382 169.671 281.189 169.671C282.855 169.671 283.454 168.997 284.15 166.341Z" fill="black"/>
<path fill-rule="evenodd" clip-rule="evenodd" d="M317.956 168.166C327.061 163.444 327.665 148.919 318.945 144.409C312.82 141.242 303.985 143.645 300.95 149.304C294.837 160.702 306.788 173.957 317.956 168.166ZM308.526 163.047C301.971 158.455 304.758 148.361 312.581 148.361C319.472 148.361 322.29 156.612 317.154 161.748C314.302 164.6 311.373 165.041 308.526 163.047Z" fill="black"/>
<path fill-rule="evenodd" clip-rule="evenodd" d="M357.04 168.746C357.04 168.176 355.862 165.963 354.422 163.829L351.804 159.95L354.422 157.332C358.028 153.726 358.037 149.221 354.445 145.63C351.958 143.142 351.514 143.034 343.79 143.034H335.731V156.16V169.286L338.173 169.169C340.476 169.059 340.612 168.818 340.576 164.922C340.538 160.9 340.608 160.792 343.24 160.808C345.487 160.822 346.39 161.532 348.606 165.026C350.768 168.436 351.812 169.279 354.155 169.505C355.923 169.676 357.04 169.382 357.04 168.746ZM340.887 152.33C340.685 150.606 340.708 149.008 340.938 148.778C341.167 148.549 343.009 148.361 345.032 148.361C349.662 148.361 352.149 150.029 351.336 152.59C350.681 154.656 349.316 155.208 344.485 155.362C341.423 155.459 341.233 155.3 340.887 152.33Z" fill="black"/>
<path fill-rule="evenodd" clip-rule="evenodd" d="M416.684 168.203C423.824 163.616 421.657 155.859 412.492 153.195C407.079 151.621 406.195 150.826 408.099 149.245C409.333 148.222 410.903 148.314 415.197 149.664C416.207 149.981 417.74 149.651 418.749 148.899C420.519 147.58 420.519 147.57 418.627 145.651C416.309 143.302 409.645 142.36 406.005 143.868C403.283 144.996 401.435 148.023 401.435 151.356C401.435 154.207 404.715 156.935 409.621 158.164C414.64 159.421 416.374 161.059 414.754 163.012C414.146 163.744 412.547 164.344 411.202 164.344C409.857 164.344 408.258 163.744 407.65 163.012C406.219 161.287 403.735 161.311 402.281 163.063C401.315 164.226 401.497 164.809 403.425 166.737C406.403 169.715 413.167 170.463 416.684 168.203Z" fill="black"/>
</svg>
